%
M48
M72
T01C0.0120
T02C0.0197
T03C0.0350
T04C0.0750
T05C0.0866
%
T01
X-1400Y1100
X-2500Y2000
X-2500Y3000
X-3500Y3000
X-4500Y3000
X-4500Y2000
X-5500Y2000
X-5500Y3000
X-6000Y500
X-6000Y-500
X-6000Y-1250
X-5500Y-2750
X-4500Y-2750
X-3500Y-2750
X-2500Y-2750
X-1500Y-2750
X-500Y-2750
X500Y-2750
X1500Y-2750
X2500Y-2750
X2500Y-1900
X1700Y-1550
X1700Y-1200
X2050Y-250
X2000Y750
X2000Y1250
X1500Y1000
X1000Y3000
X250Y3000
X-750Y3000
X3200Y3000
X3500Y-1900
X3500Y-2750
X4500Y-2750
X4500Y-1900
X-1500Y-1500
X-2500Y-1500
T02
X7925Y-2025
X7925Y-2350
X7925Y-2675
X7925Y-3000
X7925Y-7275
X7925Y-7600
X7925Y-7925
X7925Y-8250
X7925Y-12275
X7925Y-12600
X7925Y-12925
X7925Y-13250
X7925Y-17525
X7925Y-17850
X7925Y-18175
X7925Y-18500
X7925Y-22525
X7925Y-22850
X7925Y-23175
X7925Y-23500
X7925Y-28025
X7925Y-28350
X7925Y-28675
X7925Y-29000
X7925Y-32775
X7925Y-33100
X7925Y-33425
X7925Y-33750
X7925Y-38275
X7925Y-38600
X7925Y-38925
X7925Y-39250
X7925Y-43025
X7925Y-43350
X7925Y-43675
X7925Y-44000
X-23675Y-43975
X-23675Y-43650
X-23675Y-43325
X-23675Y-43000
X-23675Y-38975
X-23675Y-38650
X-23675Y-38325
X-23675Y-38000
X-23675Y-33725
X-23675Y-33400
X-23675Y-33075
X-23675Y-32750
X-23675Y-28725
X-23675Y-28400
X-23675Y-28075
X-23675Y-27750
X-23675Y-23475
X-23675Y-23150
X-23675Y-22825
X-23675Y-22500
X-23675Y-18475
X-23675Y-18150
X-23675Y-17825
X-23675Y-17500
X-23675Y-13225
X-23675Y-12900
X-23675Y-12575
X-23675Y-12250
X-23675Y-8225
X-23675Y-7900
X-23675Y-7575
X-23675Y-7250
X-23675Y-2725
X-23675Y-2400
X-23675Y-2075
X-23675Y-1750
X-23675Y2025
X-23675Y2350
X-23675Y2675
X-23675Y3000
X7925Y2975
X7925Y2650
X7925Y2325
X7925Y2000
T03
X6250Y2000
X6250Y1000
X6250Y0
X6250Y-1000
X6250Y-2000
X6250Y-3000
X5250Y-3000
X5250Y3000
X6250Y3000
T04
X10250Y3750
X-26000Y3750
X-26000Y-44750
X10250Y-44750
T05
X7874Y-41000
X7874Y-30750
X7874Y-20500
X7874Y-10250
X7874Y0
X-3937Y-3937
X-3937Y-6313
X-3937Y-14187
X-3937Y-16563
X-3937Y-24437
X-3937Y-26813
X-3937Y-34687
X-3937Y-37063
X-3937Y-44937
X-11813Y-44937
X-11813Y-37063
X-11813Y-34687
X-11813Y-26813
X-11813Y-24437
X-11813Y-16563
X-11813Y-14187
X-11813Y-6313
X-11813Y-3937
X-11813Y3937
X-3937Y3937
X-23624Y0
X-23624Y-10250
X-23624Y-20500
X-23624Y-30750
X-23624Y-41000
M30
